<?xml version="1.0" encoding="UTF-8"?>
<svg version="1.1" xmlns="http://www.w3.org/2000/svg" width="1024" height="1024">
<path d="M0 0 C2.82141038 1.45205871 4.16491574 3.85776796 5.94067383 6.43261719 C6.64708008 7.44453125 7.35348633 8.45644531 8.08129883 9.49902344 C8.87793945 10.67271484 8.87793945 10.67271484 9.69067383 11.87011719 C5.72224972 16.02311916 1.46416514 19.58651994 -3.05932617 23.12011719 C-3.81922852 23.73306641 -4.57913086 24.34601563 -5.36206055 24.97753906 C-10.0383361 28.659967 -14.7195652 31.71916034 -19.98120117 34.51074219 C-31.90181847 40.65490289 -31.90181847 40.65490289 -39.54614258 51.09082031 C-40.96637263 58.67803297 -40.63856505 66.25921732 -40.3527832 73.94042969 C-40.282928 80.25722376 -41.13156018 86.38290776 -42.05932617 92.62011719 C-42.23077148 93.8134668 -42.4022168 95.00681641 -42.57885742 96.23632812 C-49.76061069 144.02361028 -69.14344275 195.49536789 -106.23120117 228.46777344 C-106.91698242 229.26054688 -107.60276367 230.05332031 -108.30932617 230.87011719 C-107.94650107 234.4878406 -106.72993656 237.435536 -105.15698242 240.68652344 C-104.71628418 241.6058667 -104.27558594 242.52520996 -103.8215332 243.47241211 C-102.83535394 245.4861244 -101.84529572 247.49794068 -100.85180664 249.50805664 C-98.4273006 254.4240546 -96.0890332 259.30143143 -94.09448242 264.40917969 C-88.51832533 278.09018656 -81.02874261 283.51222129 -67.80102539 289.68847656 C-65.66430426 290.70177563 -63.61455753 291.77475434 -61.56323242 292.94824219 C-53.94227911 297.28293471 -46.00822903 300.96451683 -38.03155518 304.59106445 C-36.2130468 305.41953276 -34.39956222 306.25899996 -32.58618164 307.09863281 C-31.46099121 307.60201172 -30.33580078 308.10539062 -29.17651367 308.62402344 C-28.1670166 309.08107666 -27.15751953 309.53812988 -26.11743164 310.0090332 C-22.32602117 311.17164012 -19.98499985 310.61845732 -16.42602539 309.02905273 C-15.52907959 308.52305542 -15.52907959 308.52305542 -14.61401367 308.00683594 C-13.9129248 307.62084229 -13.21183594 307.23484863 -12.48950195 306.8371582 C-11.72879395 306.41490967 -10.96808594 305.99266113 -10.18432617 305.55761719 C16.25765443 291.31982716 44.51965076 281.15192858 72.75317383 271.12011719 C73.40847076 270.88670624 74.0637677 270.65329529 74.73892212 270.41281128 C80.97482602 268.19359703 87.21129574 265.99574513 93.52661133 264.01074219 C105.10061706 260.32981829 114.10757123 255.31046126 123.69067383 247.87011719 C124.90535736 246.9480311 126.12019895 246.02615316 127.33520508 245.10449219 C134.32069036 239.74647025 141.06582886 234.10153906 147.75317383 228.37792969 C150.69067383 225.87011719 150.69067383 225.87011719 153.94067383 223.79980469 C158.39703085 219.97200111 158.13416977 214.38073191 158.69067383 208.87011719 C158.89157454 207.14000149 159.09524615 205.41020629 159.30102539 203.68066406 C160.00779318 197.664215 160.66316196 191.64265087 161.31567383 185.62011719 C161.54713677 183.50680219 161.77890504 181.39352062 162.01098633 179.28027344 C162.57440482 174.14393339 163.13368364 169.00715813 163.69067383 163.87011719 C164.35067383 163.87011719 165.01067383 163.87011719 165.69067383 163.87011719 C165.91271484 164.89903076 166.13475586 165.92794434 166.36352539 166.98803711 C168.28150992 175.78909475 170.31831987 184.55326225 172.48754883 193.29589844 C172.7281604 194.26711639 172.96877197 195.23833435 173.2166748 196.23898315 C174.21079048 200.24550684 175.20733217 204.25139604 176.21069336 208.25561523 C176.95397187 211.22612044 177.69003524 214.19833909 178.42504883 217.17089844 C178.76714386 218.52396843 178.76714386 218.52396843 179.1161499 219.90437317 C181.14376037 228.14379377 181.14376037 228.14379377 180.69067383 231.87011719 C179.00317383 234.08105469 179.00317383 234.08105469 176.69067383 236.24511719 C175.85922852 237.03015625 175.0277832 237.81519531 174.17114258 238.62402344 C172.94331055 239.73583984 172.94331055 239.73583984 171.69067383 240.87011719 C171.06805664 241.43601562 170.44543945 242.00191406 169.80395508 242.58496094 C167.78807288 244.37345512 165.74260844 246.12306101 163.69067383 247.87011719 C162.64995945 248.76293878 161.60962609 249.65620461 160.56958008 250.54980469 C158.18851619 252.5950645 155.80380232 254.63596919 153.41723633 256.67480469 C150.94195022 258.79184278 148.47955509 260.92255274 146.02661133 263.06542969 C145.4254248 263.58790283 144.82423828 264.11037598 144.20483398 264.64868164 C143.07878616 265.62777914 141.95574056 266.61034752 140.83666992 267.59741211 C139.1491864 269.0599837 137.43287577 270.47311157 135.69067383 271.87011719 C134.60471924 272.74349731 134.60471924 272.74349731 133.49682617 273.63452148 C126.99157243 278.54524749 120.61406989 280.87725152 112.81567383 283.05761719 C110.23904224 283.81974538 107.66365257 284.58539722 105.08911133 285.35449219 C104.41618042 285.55360703 103.74324951 285.75272186 103.04992676 285.95787048 C66.76935333 296.73089584 30.62981176 309.77131823 -2.43432617 328.37011719 C-3.51315063 328.97666138 -3.51315063 328.97666138 -4.61376953 329.59545898 C-7.53245196 331.25129349 -10.41617261 332.93622666 -13.27026367 334.70214844 C-18.94161177 338.00898064 -18.94161177 338.00898064 -22.33642578 337.66430664 C-30.28107638 335.19163277 -37.64112239 331.55044271 -45.08349609 327.875 C-47.33920528 326.76122404 -49.60000488 325.6584366 -51.86206055 324.55761719 C-78.78953844 311.40266278 -78.78953844 311.40266278 -90.93432617 303.68261719 C-91.56209961 303.29654297 -92.18987305 302.91046875 -92.83666992 302.51269531 C-100.00879593 298.00598673 -105.57011304 293.70243593 -109.12182617 285.80761719 C-109.61247559 284.77278198 -109.61247559 284.77278198 -110.11303711 283.71704102 C-110.82084838 282.22113586 -111.52164715 280.72189621 -112.21606445 279.21972656 C-113.32547902 276.83540191 -114.46684708 274.46896169 -115.61791992 272.10449219 C-120.27327405 262.51164126 -124.76782894 252.84004314 -129.16906738 243.12808228 C-129.98486902 241.3339142 -130.81157265 239.54471615 -131.63842773 237.75561523 C-132.13181641 236.65773682 -132.62520508 235.5598584 -133.13354492 234.42871094 C-133.57786865 233.45216553 -134.02219238 232.47562012 -134.47998047 231.46948242 C-135.38186021 228.64277839 -135.51013528 227.5514193 -134.30932617 224.87011719 C-132.93334961 223.21704102 -132.93334961 223.21704102 -131.16870117 221.57714844 C-130.19078613 220.6455188 -130.19078613 220.6455188 -129.19311523 219.69506836 C-128.48896484 219.03095947 -127.78481445 218.36685059 -127.05932617 217.68261719 C-109.33320453 200.41724815 -95.56903844 179.34021949 -85.30932617 156.87011719 C-84.81505127 155.80470703 -84.81505127 155.80470703 -84.31079102 154.71777344 C-68.55361654 120.41521092 -63.63867425 83.00081453 -59.30932617 45.87011719 C-60.18613037 45.87591797 -61.06293457 45.88171875 -61.96630859 45.88769531 C-63.12493408 45.89220703 -64.28355957 45.89671875 -65.47729492 45.90136719 C-67.19468872 45.91006836 -67.19468872 45.91006836 -68.94677734 45.91894531 C-73.13479213 45.85813046 -77.16152174 45.43253135 -81.30932617 44.87011719 C-81.30932617 44.21011719 -81.30932617 43.55011719 -81.30932617 42.87011719 C-80.69226807 42.53915039 -80.07520996 42.20818359 -79.43945312 41.8671875 C-68.6970996 36.09742882 -57.98104855 30.3039237 -47.43432617 24.18261719 C-38.56649007 19.07064339 -29.59649283 14.15050268 -20.57757568 9.31112671 C-19.02960785 8.47860807 -17.483884 7.64190285 -15.94049072 6.80093384 C-13.76629065 5.61790543 -11.58412802 4.451097 -9.39916992 3.28808594 C-8.7427803 2.9272995 -8.08639069 2.56651306 -7.41011047 2.1947937 C-2.91869795 -0.16415555 -2.91869795 -0.16415555 0 0 Z " fill="#2ecc71" transform="translate(447.309326171875,353.1298828125)"/>
<path d="M0 0 C1.18251558 3.54754674 0.66005009 5.35563044 0 9 C-1.81287761 39.05125949 4.35708827 66.24571856 18 93 C18.30518555 93.61004883 18.61037109 94.22009766 18.92480469 94.84863281 C29.90288456 116.72515882 44.78538599 136.24104793 62.35546875 153.25 C65 156 65 156 65 158 C65.58652344 158.25652344 66.17304687 158.51304687 66.77734375 158.77734375 C69.20312929 160.11173896 70.67528701 161.54485328 72.5625 163.5625 C76.52067864 167.63083203 80.77560337 171.15444323 85.19921875 174.703125 C88.72681018 177.59604517 92.07791694 180.65564605 95.41796875 183.76171875 C98.80901763 186.70131181 102.3930083 189.3330674 106 192 C107.59083259 193.19399615 109.18063905 194.38936042 110.76953125 195.5859375 C125.18582133 206.56990217 125.18582133 206.56990217 140 217 C137.22649219 218.3867539 135.53881927 217.45494672 132.6953125 216.56567383 C99.26910817 205.41517206 61.87993675 184.71172464 39 157 C39 156.34 39 155.68 39 155 C38.44183594 154.7834375 37.88367188 154.566875 37.30859375 154.34375 C34.26649503 152.57305295 32.27422301 150.17913651 30.0625 147.5 C29.59086426 146.93394043 29.11922852 146.36788086 28.63330078 145.78466797 C8.4493687 121.1885876 -7.30920991 93.36627269 -17 63 C-19.41164905 71.18981326 -21.36480982 79.3143638 -22.6875 87.75 C-22.86599487 88.88175659 -22.86599487 88.88175659 -23.0480957 90.03637695 C-26.09257664 110.35998831 -26.52101228 131.71180132 -23 152 C-22.8146167 153.10335693 -22.8146167 153.10335693 -22.62548828 154.22900391 C-16.47382696 189.6849428 1.40368899 218.18787333 24.53515625 245.125 C25.95340953 246.77925422 27.36273864 248.44145373 28.74609375 250.125 C31.92418667 253.98349764 35.38248956 257.17105257 39.265625 260.32421875 C41.0968652 262.09359273 42.00626435 263.67283334 43 266 C41.1096624 266.70246995 39.21243172 267.38640849 37.3125 268.0625 C36.25675781 268.44535156 35.20101562 268.82820313 34.11328125 269.22265625 C30.70123735 270.07459695 29.26560431 270.25366853 26 269 C23.61299088 267.31565368 21.47325635 265.3998256 19.3125 263.4375 C18.07816216 262.34353912 16.84247557 261.25109824 15.60546875 260.16015625 C14.99880371 259.62277832 14.39213867 259.08540039 13.76708984 258.53173828 C10.52202809 255.71887321 7.11043695 253.12595999 3.6953125 250.5234375 C3.13585937 250.02070313 2.57640625 249.51796875 2 249 C2 248.34 2 247.68 2 247 C1.45577393 246.78102051 0.91154785 246.56204102 0.35083008 246.33642578 C-2.7751299 244.55934561 -5.10971815 242.15642685 -7.61328125 239.6171875 C-8.41224068 238.81754074 -8.41224068 238.81754074 -9.2273407 238.0017395 C-10.35339921 236.87266483 -11.4770312 235.74116559 -12.59838867 234.60742188 C-14.29108744 232.89664129 -15.99147489 231.19382508 -17.69335938 229.4921875 C-23.33711284 223.83022771 -28.84929505 218.12040179 -34 212 C-34.94771974 210.89696619 -35.8956294 209.79409552 -36.84375 208.69140625 C-52 190.88427438 -52 190.88427438 -52 188 C-50.5437455 187.32880451 -49.08492133 186.66318193 -47.625 186 C-46.81289063 185.62875 -46.00078125 185.2575 -45.1640625 184.875 C-43 184 -43 184 -41 184 C-41.32613281 183.04222656 -41.65226562 182.08445312 -41.98828125 181.09765625 C-42.43029566 179.7528039 -42.87166561 178.40773962 -43.3125 177.0625 C-43.52583984 176.44181641 -43.73917969 175.82113281 -43.95898438 175.18164062 C-48.5069466 161.13047374 -49.58106224 146.85104125 -49.5 132.1875 C-49.49856995 131.34471497 -49.49713989 130.50192993 -49.4956665 129.63360596 C-49.43049413 113.99628737 -47.70639179 99.23164595 -44 84 C-43.77538086 83.05044434 -43.55076172 82.10088867 -43.31933594 81.12255859 C-35.87929017 50.43643096 -20.6249769 23.68221905 0 0 Z " fill="#2ecc71" transform="translate(491,136)"/>
<path d="M0 0 C1.16674805 1.85766602 1.16674805 1.85766602 2.26171875 4.25390625 C2.65810547 5.10791016 3.05449219 5.96191406 3.46289062 6.84179688 C3.86701172 7.73962891 4.27113281 8.63746094 4.6875 9.5625 C5.10322266 10.46419922 5.51894531 11.36589844 5.94726562 12.29492188 C6.9742053 14.52585979 7.99126292 16.76078714 9 19 C10.72500732 19.02187378 10.72500732 19.02187378 12.48486328 19.04418945 C16.76788805 19.10233762 21.05039616 19.17956924 25.33300781 19.26245117 C27.18350819 19.29562296 29.03410786 19.32367887 30.88476562 19.34643555 C33.55121003 19.3801245 36.2167509 19.4324466 38.8828125 19.48828125 C39.70492218 19.49467117 40.52703186 19.5010611 41.37405396 19.50764465 C47.70634527 19.66826667 51.81650553 21.16387965 56.75 25.3125 C61.97279007 31.55083258 61.36422024 38.80168549 61.44140625 46.5546875 C61.46206398 48.37796066 61.46206398 48.37796066 61.48313904 50.23806763 C61.50637285 52.80498733 61.52365764 55.37196685 61.53540039 57.93896484 C61.56236204 61.85496204 61.63732146 65.7682743 61.71289062 69.68359375 C61.72954582 72.18227356 61.74331297 74.68097464 61.75390625 77.1796875 C61.78376114 78.34450653 61.81361603 79.50932556 61.84437561 80.70944214 C61.8134916 86.44777964 61.51284259 90.13775169 57.69506836 94.58642578 C56.4984175 95.76107749 55.26619991 96.90067398 54 98 C52.98922142 98.90333572 52.98922142 98.90333572 51.95802307 99.82492065 C50.68326364 100.94637448 49.39681842 102.05462686 48.1015625 103.15234375 C45.79748895 105.1780441 43.65248842 107.31422567 41.5 109.5 C25.20065309 125.99606316 25.20065309 125.99606316 16.7421875 126.31640625 C15.65309082 126.35854248 14.56399414 126.40067871 13.44189453 126.4440918 C12.26481934 126.4831665 11.08774414 126.52224121 9.875 126.5625 C8.66827637 126.6035083 7.46155273 126.6445166 6.21826172 126.68676758 C-38.08752559 128.08598919 -38.08752559 128.08598919 -44.29296875 123.19140625 C-49.29375056 117.75143403 -50.15118532 113.39301676 -50.17700195 106.13549805 C-50.18357315 105.33515137 -50.19014435 104.53480469 -50.19691467 103.71020508 C-50.21663062 101.06070867 -50.22830611 98.41126889 -50.23828125 95.76171875 C-50.24235678 94.8562562 -50.2464323 93.95079365 -50.25063133 93.01789284 C-50.27148424 88.22587945 -50.28578965 83.43389464 -50.29516602 78.6418457 C-50.30623226 73.69533439 -50.34063682 68.74927269 -50.38033772 63.80292034 C-50.40649489 59.9964566 -50.41485702 56.19010017 -50.41844749 52.38355446 C-50.42331533 50.56032078 -50.43493496 48.73709196 -50.45348549 46.91394615 C-50.47785944 44.35983091 -50.47691544 41.80688172 -50.4699707 39.25268555 C-50.48278076 38.50285904 -50.49559082 37.75303253 -50.50878906 36.98048401 C-50.45794329 31.83801825 -49.21824236 28.97033249 -46 25 C-40.98617579 20.47532937 -37.26648298 19.85288234 -30.70703125 19.90234375 C-29.64798836 19.90446617 -29.64798836 19.90446617 -28.56755066 19.90663147 C-26.31582374 19.91222236 -24.06419679 19.92477312 -21.8125 19.9375 C-20.28450665 19.94251618 -18.75651173 19.94707888 -17.22851562 19.95117188 C-13.48563865 19.9621888 -9.74283627 19.97944713 -6 20 C-6.35151123 19.24871826 -6.70302246 18.49743652 -7.06518555 17.72338867 C-7.5219165 16.7357251 -7.97864746 15.74806152 -8.44921875 14.73046875 C-8.90385498 13.75231201 -9.35849121 12.77415527 -9.8269043 11.76635742 C-11.06529112 8.84603252 -11.74342077 6.16447718 -12 3 C-10.5682384 2.30062798 -9.12932968 1.61587282 -7.6875 0.9375 C-6.48673828 0.36322266 -6.48673828 0.36322266 -5.26171875 -0.22265625 C-3 -1 -3 -1 0 0 Z M-35 37 C-36.13678684 41.01216246 -36.11531614 44.90070814 -36.09765625 49.05078125 C-36.0962413 49.70958786 -36.09482635 50.36839447 -36.09336853 51.04716492 C-36.087805 53.13565762 -36.07525947 55.22404011 -36.0625 57.3125 C-36.05748028 58.73502449 -36.0529182 60.15755066 -36.04882812 61.58007812 C-36.03784757 65.05342077 -36.02060835 68.52669961 -36 72 C-32.93405406 73.53297297 -29.72888147 73.12131455 -26.3671875 73.09765625 C-25.61535187 73.0962413 -24.86351624 73.09482635 -24.08889771 73.09336853 C-21.6842249 73.08776465 -19.27964473 73.07521157 -16.875 73.0625 C-15.24609509 73.0574855 -13.61718873 73.0529225 -11.98828125 73.04882812 C-7.99215173 73.03779397 -3.99609158 73.02052679 0 73 C0 74.65 0 76.3 0 78 C-11.88 78.33 -23.76 78.66 -36 79 C-36.020625 82.650625 -36.04125 86.30125 -36.0625 90.0625 C-36.071604 91.19953369 -36.08070801 92.33656738 -36.09008789 93.50805664 C-36.24608869 101.33666991 -36.24608869 101.33666991 -35 109 C-30.96564485 112.24695439 -27.19903688 112.42835945 -22.21484375 112.36328125 C-21.10768761 112.36402901 -21.10768761 112.36402901 -19.97816467 112.36479187 C-18.42413631 112.3624599 -16.87010355 112.35278323 -15.31616211 112.33618164 C-12.94155035 112.31254032 -10.56805937 112.31563307 -8.19335938 112.32226562 C-6.67968083 112.3166897 -5.16600699 112.30958036 -3.65234375 112.30078125 C-2.94496567 112.30169266 -2.23758759 112.30260406 -1.5087738 112.30354309 C2.12481798 112.25140209 4.96910532 112.11634825 8 110 C9.55990427 106.88019145 9.12114247 103.57076779 9.09765625 100.1484375 C9.09664917 99.46241455 9.09564209 98.7763916 9.09460449 98.06958008 C9.08936889 95.50470307 9.07540763 92.93984987 9.0625 90.375 C9.041875 84.64125 9.02125 78.9075 9 73 C21.21 73 33.42 73 46 73 C46.061875 67.286875 46.12375 61.57375 46.1875 55.6875 C46.21481201 53.88756592 46.24212402 52.08763184 46.27026367 50.2331543 C46.27902617 48.80518261 46.28667067 47.37720343 46.29296875 45.94921875 C46.30831665 45.20885376 46.32366455 44.46848877 46.33947754 43.70568848 C46.38550878 39.81729569 46.38550878 39.81729569 44.93405151 36.30117798 C42.01978589 34.34053824 39.10721915 34.59046545 35.71459961 34.62768555 C34.97610275 34.62403488 34.2376059 34.62038422 33.47673035 34.61662292 C31.03503444 34.60851498 28.5940016 34.62212778 26.15234375 34.63671875 C24.45748393 34.63723727 22.76262351 34.63671987 21.06776428 34.63520813 C17.51603211 34.63529786 13.96452689 34.6457299 10.4128418 34.66381836 C5.8539094 34.68652292 1.2953082 34.68704664 -3.2636652 34.68030071 C-6.76288308 34.67696411 -10.26202506 34.68358468 -13.76122856 34.69342995 C-15.44259685 34.69728628 -17.12397357 34.69842837 -18.80534554 34.6968441 C-21.15172636 34.69647443 -23.49767766 34.70906497 -25.84399414 34.7253418 C-26.54274658 34.72286438 -27.24149902 34.72038696 -27.96142578 34.71783447 C-31.92410997 34.66257843 -31.92410997 34.66257843 -35 37 Z " fill="#2ecc71" transform="translate(506,666)"/>
<path d="M0 0 C8.07247531 7.98536227 15.57223609 16.37549343 22.6875 25.21875 C25.19971133 28.24019336 27.82402457 31.12440078 30.5 34 C34.79031635 38.61081032 38.80679641 43.3780417 42.75390625 48.2890625 C45.08102265 51.09779082 47.51650732 53.76650171 50 56.4375 C60.80298018 68.27890618 68.8741636 80.43343851 73 96 C70 96 70 96 68.40942383 94.73413086 C67.84763428 94.15026611 67.28584473 93.56640137 66.70703125 92.96484375 C66.08030518 92.32321289 65.4535791 91.68158203 64.80786133 91.02050781 C64.14939209 90.33311523 63.49092285 89.64572266 62.8125 88.9375 C61.46013465 87.55422622 60.1059866 86.1726929 58.75 84.79296875 C58.10160156 84.13216309 57.45320312 83.47135742 56.78515625 82.79052734 C53.04455633 79.03867289 49.13371782 75.49549072 44.79296875 72.453125 C44.20128906 71.97359375 43.60960937 71.4940625 43 71 C43 70.34 43 69.68 43 69 C42.46375 68.773125 41.9275 68.54625 41.375 68.3125 C38.17539839 66.54429911 35.70962777 64.46329797 33 62 C33 61.34 33 60.68 33 60 C32.34 60 31.68 60 31 60 C31 59.34 31 58.68 31 58 C30.16662109 57.65449097 30.16662109 57.65449097 29.31640625 57.30200195 C26.3656982 55.64347265 24.3257086 53.56738857 21.9375 51.16796875 C21.4643335 50.69434402 20.99116699 50.2207193 20.50366211 49.73274231 C19.50624791 48.73231555 18.51125669 47.72946796 17.51855469 46.72436523 C16.01023053 45.19785389 14.4941277 43.67942838 12.9765625 42.16210938 C8.75826928 37.92246553 4.71865578 33.69186714 1 29 C-0.36125 27.6696875 -0.36125 27.6696875 -1.75 26.3125 C-4 24 -4 24 -4 22 C-5.66289063 22.99193359 -5.66289063 22.99193359 -7.359375 24.00390625 C-8.822539 24.85741859 -10.28610166 25.71024777 -11.75 26.5625 C-12.47960937 27.00013672 -13.20921875 27.43777344 -13.9609375 27.88867188 C-14.66992188 28.29794922 -15.37890625 28.70722656 -16.109375 29.12890625 C-16.75874023 29.51119385 -17.40810547 29.89348145 -18.07714844 30.28735352 C-20.50393283 31.18676739 -21.61364613 30.93983947 -24 30 C-26.578125 27.78515625 -26.578125 27.78515625 -29.25 25.0625 C-30.14203125 24.16660156 -31.0340625 23.27070313 -31.953125 22.34765625 C-34 20 -34 20 -34 18 C-29.47949457 15.59693851 -24.95882037 13.19419494 -20.43798828 10.79174805 C-18.89953015 9.97412754 -17.36111847 9.15641961 -15.82275391 8.33862305 C-13.61372846 7.16432164 -11.40453708 5.99033297 -9.1953125 4.81640625 C-8.50567413 4.44971329 -7.81603577 4.08302032 -7.10549927 3.70521545 C-2.22774341 1.11387171 -2.22774341 1.11387171 0 0 Z " fill="#2ecc71" transform="translate(605,274)"/>
<path d="M0 0 C0.66 0.33 1.32 0.66 2 1 C2 2.32 2 3.64 2 5 C1.34 5 0.68 5 0 5 C-0.03738281 5.69222656 -0.07476562 6.38445313 -0.11328125 7.09765625 C-1.74606974 31.39739077 -1.74606974 31.39739077 -10.16015625 38.77734375 C-12 40 -12 40 -14 40 C-14 40.66 -14 41.32 -14 42 C-15.62102968 43.71108689 -17.29503463 45.37253306 -19 47 C-19.721875 47.763125 -20.44375 48.52625 -21.1875 49.3125 C-23 51 -23 51 -25 51 C-26.3417678 47.73256344 -27.67194359 44.46053092 -29 41.1875 C-29.3815625 40.25873047 -29.763125 39.32996094 -30.15625 38.37304688 C-30.5171875 37.48037109 -30.878125 36.58769531 -31.25 35.66796875 C-31.58515625 34.84578857 -31.9203125 34.0236084 -32.265625 33.17651367 C-33 31 -33 31 -33 28 C-31.015625 26.125 -31.015625 26.125 -28.25 24 C-22.86828419 19.75018055 -17.83653851 15.25537836 -12.82421875 10.578125 C-4.52272727 3 -4.52272727 3 -2 3 C-2 2.34 -2 1.68 -2 1 C-1.34 0.67 -0.68 0.34 0 0 Z " fill="#2ecc71" transform="translate(393,559)"/>
<path d="M0 0 C3.3 0 6.6 0 10 0 C10 2.97 10 5.94 10 9 C12.1965625 8.7215625 12.1965625 8.7215625 14.4375 8.4375 C15.95318071 8.24537146 17.47480724 8.08937803 19 8 C20 9 20 9 20.1328125 11.03125 C20.13023437 11.8459375 20.12765625 12.660625 20.125 13.5 C20.12886719 14.72203125 20.12886719 14.72203125 20.1328125 15.96875 C20 18 20 18 19 19 C16.34536879 19.45459858 13.67810862 19.70243238 11 20 C10.67 22.64 10.34 25.28 10 28 C8.35425434 28.02688151 6.70838587 28.04634123 5.0625 28.0625 C4.14597656 28.07410156 3.22945313 28.08570313 2.28515625 28.09765625 C0 28 0 28 -1 27 C-1.04080783 25.00041636 -1.04254356 22.99954746 -1 21 C-3.6739124 20.10869587 -6.23723823 19.52268466 -9 19 C-9 15.7 -9 12.4 -9 9 C-6.36 9 -3.72 9 -1 9 C-0.67 6.03 -0.34 3.06 0 0 Z " fill="#2ecc71" transform="translate(487,707)"/>
<path d="M0 0 C2.52128356 2.52128356 2.29353069 3.51239013 2.4140625 7.0078125 C2.45273437 7.99394531 2.49140625 8.98007812 2.53125 9.99609375 C2.5621875 11.02863281 2.593125 12.06117188 2.625 13.125 C2.66367187 14.16527344 2.70234375 15.20554687 2.7421875 16.27734375 C2.83664766 18.85138311 2.92221214 21.42541155 3 24 C0.36 24.66 -2.28 25.32 -5 26 C-6.6735337 23.04550087 -8.33763985 20.0857982 -10 17.125 C-10.47695313 16.28324219 -10.95390625 15.44148437 -11.4453125 14.57421875 C-11.89648438 13.76855469 -12.34765625 12.96289062 -12.8125 12.1328125 C-13.23144531 11.38918457 -13.65039062 10.64555664 -14.08203125 9.87939453 C-15 8 -15 8 -15 6 C-10.05 4.02 -5.1 2.04 0 0 Z " fill="#2ecc71" transform="translate(530,654)"/>
<path d="M0 0 C9.24 0 18.48 0 28 0 C28 3.3 28 6.6 28 10 C18.76 10 9.52 10 0 10 C0 6.7 0 3.4 0 0 Z " fill="#2ecc71" transform="translate(515,716)"/>
<path d="M0 0 C0.99 0.33 1.98 0.66 3 1 C3 2.65 3 4.3 3 6 C-0.72426181 7.2414206 -4.08351897 7.01823389 -7.94921875 6.87890625 C-8.72183548 6.85529526 -9.49445221 6.83168427 -10.29048157 6.80735779 C-12.7563464 6.73083079 -15.22188846 6.64675953 -17.6875 6.5625 C-19.36001029 6.50926832 -21.03253629 6.45652799 -22.70507812 6.40429688 C-26.80358952 6.27523053 -30.90182752 6.13939792 -35 6 C-35 5.67 -35 5.34 -35 5 C-28.565 4.505 -28.565 4.505 -22 4 C-25.63 3.67 -29.26 3.34 -33 3 C-33 2.67 -33 2.34 -33 2 C-22.11 2 -11.22 2 0 2 C0 1.34 0 0.68 0 0 Z " fill="#2ecc71" transform="translate(504,738)"/>
<path d="M0 0 C2.52128356 2.52128356 2.29353069 3.51239013 2.4140625 7.0078125 C2.45273437 7.99394531 2.49140625 8.98007812 2.53125 9.99609375 C2.5621875 11.02863281 2.593125 12.06117188 2.625 13.125 C2.66367187 14.16527344 2.70234375 15.20554687 2.7421875 16.27734375 C2.83664766 18.85138311 2.92221214 21.42541155 3 24 C0.36 24.66 -2.28 25.32 -5 26 C-6.6735337 23.04550087 -8.33763985 20.0857982 -10 17.125 C-10.47695313 16.28324219 -10.95390625 15.44148437 -11.4453125 14.57421875 C-11.89648438 13.76855469 -12.34765625 12.96289062 -12.8125 12.1328125 C-13.23144531 11.38918457 -13.65039062 10.64555664 -14.08203125 9.87939453 C-15 8 -15 8 -15 6 C-10.05 4.02 -5.1 2.04 0 0 Z M-6.5625 4 C-7.57441406 4.37125 -8.58632813 4.7425 -9.62890625 5.125 C-10.41136719 5.41375 -11.19382812 5.7025 -12 6 C-11.44380331 10.6889493 -10.11817327 14.19924267 -7.9375 18.375 C-7.11572266 19.96441406 -7.11572266 19.96441406 -6.27734375 21.5859375 C-5.85582031 22.38257813 -5.43429687 23.17921875 -5 24 C-1.535 23.505 -1.535 23.505 2 23 C1.49656013 15.97326485 0.95812032 8.98059091 0 2 C-2.20658094 2 -4.53090363 3.25274616 -6.5625 4 Z " fill="#2ecc71" transform="translate(530,654)"/>
<path d="M0 0 C0.99 0.33 1.98 0.66 3 1 C3.765625 2.99609375 3.765625 2.99609375 4.25 5.4375 C4.42015625 6.24058594 4.5903125 7.04367187 4.765625 7.87109375 C5 10 5 10 4 12 C2.02 9.69 0.04 7.38 -2 5 C-1.01 5 -0.02 5 1 5 C0.67 3.35 0.34 1.7 0 0 Z " fill="#2ecc71" transform="translate(670,355)"/>
<path d="M0 0 C2.95409701 1.37154504 5.44008376 2.98863724 8 5 C8.33 3.68 8.66 2.36 9 1 C9.99 3.97 10.98 6.94 12 10 C9 10 9 10 6.73828125 8.06640625 C5.93777344 7.24011719 5.13726563 6.41382813 4.3125 5.5625 C3.50425781 4.73878906 2.69601562 3.91507812 1.86328125 3.06640625 C0 1 0 1 0 0 Z " fill="#2ecc71" transform="translate(666,360)"/>
<path d="M0 0 C1.03060547 0.2165625 1.03060547 0.2165625 2.08203125 0.4375 C2.98308594 0.623125 3.88414062 0.80875 4.8125 1 C5.70582031 1.185625 6.59914063 1.37125 7.51953125 1.5625 C10.07260693 2.08684843 10.07260693 2.08684843 13 2 C15.1875 3.5 15.1875 3.5 17 5 C15 6 15 6 11.5234375 5.00390625 C10.13802064 4.53099953 8.75528453 4.05018356 7.375 3.5625 C6.31539062 3.19801758 6.31539062 3.19801758 5.234375 2.82617188 C3.48726713 2.22412795 1.74332214 1.61291983 0 1 C0 0.67 0 0.34 0 0 Z " fill="#2ecc71" transform="translate(614,348)"/>
<path d="M0 0 C0.66 0 1.32 0 2 0 C2 0.99 2 1.98 2 3 C4.64 3 7.28 3 10 3 C10 3.33 10 3.66 10 4 C5.05 4 0.1 4 -5 4 C-4.34 3.34 -3.68 2.68 -3 2 C-2.01 2 -1.02 2 0 2 C0 1.34 0 0.68 0 0 Z " fill="#2ecc71" transform="translate(374,393)"/>
<path d="M0 0 C2.29633824 3.44450737 2.54016485 5.93812283 3 10 C2.01 10.66 1.02 11.32 0 12 C0 8.04 0 4.08 0 0 Z " fill="#2ecc71" transform="translate(624,574)"/>
<path d="M0 0 C4 1 4 1 4 1 Z " fill="#2ecc71" transform="translate(482,702)"/>
<path d="M0 0 C0.99 1.485 0.99 1.485 2 3 C1.34 3 0.68 3 0 3 C0 2.01 0 1.02 0 0 Z " fill="#2ecc71" transform="translate(492,141)"/>
<path d="M0 0 C0.66 0.66 1.32 1.32 2 2 C1.34 2 0.68 2 0 2 C0 1.34 0 0.68 0 0 Z " fill="#2ecc71" transform="translate(548,702)"/>
<path d="M0 0 C2 1 2 1 2 1 Z " fill="#2ecc71" transform="translate(531,702)"/>
<path d="M0 0 C2 1 2 1 2 1 Z " fill="#2ecc71" transform="translate(523,702)"/>
<path d="M0 0 C2 1 2 1 2 1 Z " fill="#2ecc71" transform="translate(507,702)"/>
<path d="M0 0 C2 1 2 1 2 1 Z " fill="#2ecc71" transform="translate(621,344)"/>
<path d="" fill="#2ecc71" transform="translate(0,0)"/>
<path d="" fill="#2ecc71" transform="translate(0,0)"/>
<path d="" fill="#2ecc71" transform="translate(0,0)"/>
<path d="" fill="#2ecc71" transform="translate(0,0)"/>
<path d="" fill="#2ecc71" transform="translate(0,0)"/>
<path d="" fill="#2ecc71" transform="translate(0,0)"/>
<path d="" fill="#2ecc71" transform="translate(0,0)"/>
<path d="" fill="#2ecc71" transform="translate(0,0)"/>
<path d="" fill="#2ecc71" transform="translate(0,0)"/>
<path d="" fill="#2ecc71" transform="translate(0,0)"/>
<path d="" fill="#2ecc71" transform="translate(0,0)"/>
<path d="" fill="#2ecc71" transform="translate(0,0)"/>
<path d="" fill="#2ecc71" transform="translate(0,0)"/>
<path d="" fill="#2ecc71" transform="translate(0,0)"/>
<path d="" fill="#2ecc71" transform="translate(0,0)"/>
<path d="" fill="#2ecc71" transform="translate(0,0)"/>
<path d="" fill="#2ecc71" transform="translate(0,0)"/>
<path d="" fill="#2ecc71" transform="translate(0,0)"/>
<path d="" fill="#2ecc71" transform="translate(0,0)"/>
<path d="" fill="#2ecc71" transform="translate(0,0)"/>
<path d="" fill="#2ecc71" transform="translate(0,0)"/>
<path d="" fill="#2ecc71" transform="translate(0,0)"/>
<path d="" fill="#2ecc71" transform="translate(0,0)"/>
<path d="" fill="#2ecc71" transform="translate(0,0)"/>
<path d="" fill="#2ecc71" transform="translate(0,0)"/>
<path d="" fill="#2ecc71" transform="translate(0,0)"/>
<path d="" fill="#2ecc71" transform="translate(0,0)"/>
<path d="" fill="#2ecc71" transform="translate(0,0)"/>
<path d="" fill="#2ecc71" transform="translate(0,0)"/>
<path d="" fill="#2ecc71" transform="translate(0,0)"/>
<path d="" fill="#2ecc71" transform="translate(0,0)"/>
<path d="" fill="#2ecc71" transform="translate(0,0)"/>
<path d="" fill="#2ecc71" transform="translate(0,0)"/>
<path d="" fill="#2ecc71" transform="translate(0,0)"/>
<path d="" fill="#2ecc71" transform="translate(0,0)"/>
<path d="" fill="#2ecc71" transform="translate(0,0)"/>
<path d="" fill="#2ecc71" transform="translate(0,0)"/>
<path d="" fill="#2ecc71" transform="translate(0,0)"/>
<path d="" fill="#2ecc71" transform="translate(0,0)"/>
<path d="" fill="#2ecc71" transform="translate(0,0)"/>
<path d="" fill="#2ecc71" transform="translate(0,0)"/>
<path d="" fill="#2ecc71" transform="translate(0,0)"/>
<path d="" fill="#2ecc71" transform="translate(0,0)"/>
<path d="" fill="#2ecc71" transform="translate(0,0)"/>
<path d="" fill="#2ecc71" transform="translate(0,0)"/>
<path d="" fill="#2ecc71" transform="translate(0,0)"/>
<path d="" fill="#2ecc71" transform="translate(0,0)"/>
<path d="" fill="#2ecc71" transform="translate(0,0)"/>
<path d="" fill="#2ecc71" transform="translate(0,0)"/>
<path d="" fill="#2ecc71" transform="translate(0,0)"/>
<path d="" fill="#2ecc71" transform="translate(0,0)"/>
<path d="" fill="#2ecc71" transform="translate(0,0)"/>
<path d="" fill="#2ecc71" transform="translate(0,0)"/>
<path d="" fill="#2ecc71" transform="translate(0,0)"/>
<path d="" fill="#2ecc71" transform="translate(0,0)"/>
<path d="" fill="#2ecc71" transform="translate(0,0)"/>
<path d="" fill="#2ecc71" transform="translate(0,0)"/>
<path d="" fill="#2ecc71" transform="translate(0,0)"/>
<path d="" fill="#2ecc71" transform="translate(0,0)"/>
<path d="" fill="#2ecc71" transform="translate(0,0)"/>
<path d="" fill="#2ecc71" transform="translate(0,0)"/>
<path d="" fill="#2ecc71" transform="translate(0,0)"/>
<path d="" fill="#2ecc71" transform="translate(0,0)"/>
<path d="" fill="#2ecc71" transform="translate(0,0)"/>
<path d="" fill="#2ecc71" transform="translate(0,0)"/>
<path d="" fill="#2ecc71" transform="translate(0,0)"/>
<path d="" fill="#2ecc71" transform="translate(0,0)"/>
<path d="" fill="#2ecc71" transform="translate(0,0)"/>
<path d="" fill="#2ecc71" transform="translate(0,0)"/>
<path d="" fill="#2ecc71" transform="translate(0,0)"/>
<path d="" fill="#2ecc71" transform="translate(0,0)"/>
<path d="" fill="#2ecc71" transform="translate(0,0)"/>
<path d="" fill="#2ecc71" transform="translate(0,0)"/>
<path d="" fill="#2ecc71" transform="translate(0,0)"/>
<path d="" fill="#2ecc71" transform="translate(0,0)"/>
<path d="" fill="#2ecc71" transform="translate(0,0)"/>
<path d="" fill="#2ecc71" transform="translate(0,0)"/>
<path d="" fill="#2ecc71" transform="translate(0,0)"/>
<path d="" fill="#2ecc71" transform="translate(0,0)"/>
<path d="" fill="#2ecc71" transform="translate(0,0)"/>
<path d="" fill="#2ecc71" transform="translate(0,0)"/>
<path d="" fill="#2ecc71" transform="translate(0,0)"/>
<path d="" fill="#2ecc71" transform="translate(0,0)"/>
<path d="" fill="#2ecc71" transform="translate(0,0)"/>
<path d="" fill="#2ecc71" transform="translate(0,0)"/>
<path d="" fill="#2ecc71" transform="translate(0,0)"/>
<path d="" fill="#2ecc71" transform="translate(0,0)"/>
<path d="" fill="#2ecc71" transform="translate(0,0)"/>
<path d="" fill="#2ecc71" transform="translate(0,0)"/>
<path d="" fill="#2ecc71" transform="translate(0,0)"/>
<path d="" fill="#2ecc71" transform="translate(0,0)"/>
<path d="" fill="#2ecc71" transform="translate(0,0)"/>
<path d="" fill="#2ecc71" transform="translate(0,0)"/>
<path d="" fill="#2ecc71" transform="translate(0,0)"/>
<path d="" fill="#2ecc71" transform="translate(0,0)"/>
<path d="" fill="#2ecc71" transform="translate(0,0)"/>
<path d="" fill="#2ecc71" transform="translate(0,0)"/>
<path d="" fill="#2ecc71" transform="translate(0,0)"/>
<path d="" fill="#2ecc71" transform="translate(0,0)"/>
<path d="" fill="#2ecc71" transform="translate(0,0)"/>
<path d="" fill="#2ecc71" transform="translate(0,0)"/>
<path d="" fill="#2ecc71" transform="translate(0,0)"/>
<path d="" fill="#2ecc71" transform="translate(0,0)"/>
<path d="" fill="#2ecc71" transform="translate(0,0)"/>
<path d="" fill="#2ecc71" transform="translate(0,0)"/>
<path d="" fill="#2ecc71" transform="translate(0,0)"/>
<path d="" fill="#2ecc71" transform="translate(0,0)"/>
<path d="" fill="#2ecc71" transform="translate(0,0)"/>
<path d="" fill="#2ecc71" transform="translate(0,0)"/>
<path d="" fill="#2ecc71" transform="translate(0,0)"/>
<path d="" fill="#2ecc71" transform="translate(0,0)"/>
<path d="" fill="#2ecc71" transform="translate(0,0)"/>
<path d="" fill="#2ecc71" transform="translate(0,0)"/>
<path d="" fill="#2ecc71" transform="translate(0,0)"/>
<path d="" fill="#2ecc71" transform="translate(0,0)"/>
<path d="" fill="#2ecc71" transform="translate(0,0)"/>
<path d="" fill="#2ecc71" transform="translate(0,0)"/>
<path d="" fill="#2ecc71" transform="translate(0,0)"/>
<path d="" fill="#2ecc71" transform="translate(0,0)"/>
<path d="" fill="#2ecc71" transform="translate(0,0)"/>
<path d="" fill="#2ecc71" transform="translate(0,0)"/>
<path d="" fill="#2ecc71" transform="translate(0,0)"/>
</svg>
